<?xml version="1.0" encoding="UTF-8" standalone="no"?>
<!DOCTYPE svg PUBLIC "-//W3C//DTD SVG 1.1//EN" "http://www.w3.org/Graphics/SVG/1.1/DTD/svg11.dtd">
<svg width="100%" height="100%" viewBox="100 100 205 305" version="1.1" xmlns="http://www.w3.org/2000/svg" xmlns:xlink="http://www.w3.org/1999/xlink" xml:space="preserve" xmlns:serif="http://www.serif.com/" style="fill-rule:evenodd;clip-rule:evenodd;stroke-linejoin:round;stroke-miterlimit:2;">
    <g transform="matrix(1,0,0,1,-8318.71,-889.832)">
        <g transform="matrix(0.848625,0,0,0.759804,4558.41,16.2309)">
            <g transform="matrix(4.9099,0,0,5.48387,4760.09,1615.43)">
                <path d="M0.568,-37.179C1.215,-37.822 1.458,-37.253 1.458,-36.941L1.458,0.079C1.458,0.389 1.206,0.643 0.895,0.643L-9.34,0.643C-9.652,0.643 -9.906,0.389 -9.906,0.079L-9.906,-26.338C-9.906,-27.107 -9.714,-27.381 -9.34,-27.753L0.568,-37.179ZM-27.976,-24.899C-27.332,-25.545 -27.086,-24.975 -27.086,-24.663L-27.086,0.079C-27.086,0.387 -27.338,0.641 -27.65,0.641L-37.885,0.641C-38.197,0.641 -38.45,0.387 -38.45,0.079L-38.45,-14.06C-38.45,-14.829 -38.258,-15.102 -37.885,-15.475L-27.976,-24.899ZM5.072,-48.609L5.068,-48.526L3.401,-40.781L3.4,-40.756C3.397,-40.688 3.371,-40.623 3.317,-40.57C3.207,-40.457 3.024,-40.457 2.913,-40.57L1.093,-42.388L-18.418,-22.877C-18.508,-22.786 -18.652,-22.786 -18.741,-22.877L-20.896,-25.03C-20.906,-25.038 -20.909,-25.048 -20.915,-25.057L-26.677,-30.819L-39.246,-18.253C-39.335,-18.163 -39.479,-18.163 -39.567,-18.253L-41.724,-20.409C-41.812,-20.497 -41.812,-20.643 -41.724,-20.732L-28.996,-33.458C-28.996,-33.458 -28.996,-33.461 -28.994,-33.461L-26.84,-35.616C-26.749,-35.706 -26.607,-35.706 -26.517,-35.616L-18.577,-27.675L-1.385,-44.867L-3.118,-46.599L-3.204,-46.685C-3.315,-46.798 -3.315,-46.98 -3.204,-47.093C-3.161,-47.133 -3.11,-47.16 -3.056,-47.17L-2.918,-47.185L4.669,-48.896L4.75,-48.901L4.805,-48.904C4.869,-48.898 4.936,-48.875 4.988,-48.824C5.049,-48.765 5.076,-48.684 5.072,-48.609ZM-13.648,-23.245C-12.945,-23.949 -12.699,-23.378 -12.699,-23.066L-12.699,0.078C-12.699,0.387 -12.952,0.641 -13.262,0.641L-23.5,0.641C-23.811,0.641 -24.061,0.387 -24.061,0.078L-24.061,-22.689C-24.061,-23 -23.889,-23.643 -23.094,-22.85L-18.751,-18.423C-18.666,-18.339 -18.533,-18.336 -18.442,-18.411L-13.648,-23.245Z" style="fill:white;"/>
            </g>
        </g>
    </g>
</svg>
