<?xml version="1.0" encoding="UTF-8" standalone="no"?>
<!DOCTYPE svg PUBLIC "-//W3C//DTD SVG 1.1//EN" "http://www.w3.org/Graphics/SVG/1.1/DTD/svg11.dtd">
<svg width="100%" height="100%" viewBox="0 100 405 405" version="1.1" xmlns="http://www.w3.org/2000/svg" xmlns:xlink="http://www.w3.org/1999/xlink" xml:space="preserve" xmlns:serif="http://www.serif.com/" style="fill-rule:evenodd;clip-rule:evenodd;stroke-linejoin:round;stroke-miterlimit:2;">
    <g transform="matrix(1,0,0,1,-10131.1,-889.832)">
        <g transform="matrix(0.848625,0,0,0.759804,4558.41,16.2309)">
            <g transform="matrix(4.9099,0,0,5.48387,6928.63,1564.19)">
                <path d="M0,-25.214C-4.305,-28.614 -10.009,-28.684 -12.098,-28.187L-12.34,-28.131C-14.753,-27.561 -18.585,-26.618 -23.07,-21.052C-23.095,-21.022 -23.121,-20.99 -23.145,-20.958L-23.201,-20.889C-23.245,-20.827 -23.276,-20.754 -23.276,-20.672C-23.276,-20.605 -23.26,-20.543 -23.227,-20.486L-23.123,-20.315C-22.56,-19.373 -21.85,-18.161 -21.25,-17.044C-21.245,-17.032 -21.239,-17.023 -21.234,-17.009C-21.17,-16.886 -21.042,-16.799 -20.892,-16.799C-20.788,-16.799 -20.694,-16.84 -20.627,-16.907C-20.599,-16.943 -20.57,-16.982 -20.545,-17.021C-16.564,-22.526 -13.433,-23.287 -11.316,-23.785L-11.062,-23.844C-9.963,-24.108 -5.784,-24.092 -2.767,-21.711C-0.413,-19.852 0.782,-16.894 0.782,-12.921C0.782,-6.255 -2.46,-3.647 -5.181,-2.634C-9.395,-1.058 -13.437,-3.164 -13.467,-3.18L-13.648,-3.268C-15.963,-4.274 -19.418,-6.365 -22.674,-12.905C-29.237,-26.085 -34.726,-27.327 -38.359,-28.149L-38.553,-28.193C-40.207,-28.568 -45.951,-28.833 -50.466,-25.229C-52.825,-23.347 -55.635,-19.688 -55.635,-12.947C-55.635,-8.84 -54.791,-6.128 -52.623,-3.275C-52.147,-2.625 -47.287,3.619 -37.89,1.818C-36.386,1.53 -34.349,0.812 -32.108,-0.867L-30.04,0.998C-29.905,1.121 -29.69,1.111 -29.566,0.975C-29.506,0.912 -29.482,0.831 -29.483,0.751L-29.483,0.723L-27.991,-8.455L-27.99,-8.557C-27.991,-8.646 -28.027,-8.737 -28.101,-8.801C-28.164,-8.861 -28.242,-8.884 -28.32,-8.884L-28.384,-8.878L-28.481,-8.868L-37.271,-6.407L-37.431,-6.381C-37.495,-6.367 -37.554,-6.334 -37.599,-6.283C-37.727,-6.143 -37.715,-5.93 -37.574,-5.806L-37.471,-5.71L-35.501,-3.932C-36.773,-3.108 -37.882,-2.73 -38.728,-2.566C-45.526,-1.27 -48.883,-5.722 -49.01,-5.897L-49.058,-5.962C-50.637,-8.036 -51.171,-9.798 -51.171,-12.947C-51.171,-16.933 -49.997,-19.892 -47.682,-21.741C-44.742,-24.087 -40.687,-24.101 -39.542,-23.84L-39.344,-23.795C-36.367,-23.122 -32.289,-22.199 -26.672,-10.915C-23.754,-5.057 -20.099,-1.226 -15.5,0.794C-14.915,1.092 -12.122,2.417 -8.499,2.417C-6.983,2.417 -5.323,2.185 -3.62,1.552C-0.955,0.557 5.246,-2.842 5.246,-12.921C5.246,-19.657 2.393,-23.324 0,-25.214" style="fill:white;fill-rule:nonzero;"/>
            </g>
        </g>
    </g>
</svg>
