<?xml version="1.0" encoding="UTF-8" standalone="no"?>
<!DOCTYPE svg PUBLIC "-//W3C//DTD SVG 1.1//EN" "http://www.w3.org/Graphics/SVG/1.1/DTD/svg11.dtd">
<svg width="100%" height="100%" viewBox="100 100 205 305" version="1.1" xmlns="http://www.w3.org/2000/svg" xmlns:xlink="http://www.w3.org/1999/xlink" xml:space="preserve" xmlns:serif="http://www.serif.com/" style="fill-rule:evenodd;clip-rule:evenodd;stroke-linejoin:round;stroke-miterlimit:2;">
    <g transform="matrix(1,0,0,1,-9677.99,-436.74)">
        <g transform="matrix(0.848625,0,0,0.759804,4558.41,16.2309)">
            <g transform="matrix(4.9099,0,0,5.48387,6380.32,1039.02)">
                <path d="M-0.096,-51.885C-0.01,-51.885 0.061,-51.816 0.061,-51.73L0.061,-39.614C0.061,-39.529 -0.01,-39.46 -0.096,-39.46L-4.121,-39.46C-4.206,-39.46 -4.277,-39.529 -4.277,-39.614L-4.277,-44.12L-9.558,-38.839C-7.734,-36.255 -6.659,-33.108 -6.659,-29.712C-6.659,-21.839 -12.423,-15.291 -19.952,-14.056L-19.952,-9.341L-15.174,-9.341C-15.089,-9.341 -15.02,-9.273 -15.02,-9.188L-15.02,-4.873C-15.02,-4.787 -15.089,-4.719 -15.174,-4.719L-19.952,-4.719L-19.952,-0.153C-19.952,-0.068 -20.023,0 -20.108,0L-24.421,0C-24.507,0 -24.575,-0.068 -24.575,-0.153L-24.575,-4.719L-29.354,-4.719C-29.443,-4.719 -29.51,-4.787 -29.51,-4.873L-29.51,-9.188C-29.51,-9.273 -29.443,-9.341 -29.354,-9.341L-24.575,-9.341L-24.575,-13.98C-32.36,-14.989 -38.396,-21.656 -38.396,-29.712C-38.396,-38.462 -31.276,-45.58 -22.527,-45.58C-18.837,-45.58 -15.442,-44.312 -12.744,-42.192L-7.387,-47.549L-12.211,-47.549C-12.294,-47.549 -12.365,-47.618 -12.365,-47.704L-12.365,-51.73C-12.365,-51.816 -12.294,-51.885 -12.211,-51.885L-0.096,-51.885ZM-22.527,-18.032C-16.086,-18.032 -10.847,-23.272 -10.847,-29.712C-10.847,-36.152 -16.086,-41.392 -22.527,-41.392C-28.968,-41.392 -34.206,-36.152 -34.206,-29.712C-34.206,-23.272 -28.968,-18.032 -22.527,-18.032ZM-15.392,-28.382C-15.304,-28.382 -15.235,-28.317 -15.235,-28.239L-15.235,-24.809C-15.235,-24.732 -15.304,-24.671 -15.392,-24.671L-29.559,-24.671C-29.644,-24.671 -29.713,-24.732 -29.713,-24.809L-29.713,-28.239C-29.713,-28.317 -29.644,-28.382 -29.559,-28.382L-15.392,-28.382ZM-15.392,-34.506C-15.304,-34.506 -15.235,-34.443 -15.235,-34.368L-15.235,-30.938C-15.235,-30.858 -15.304,-30.798 -15.392,-30.798L-29.559,-30.798C-29.644,-30.798 -29.713,-30.858 -29.713,-30.938L-29.713,-34.368C-29.713,-34.443 -29.644,-34.506 -29.559,-34.506L-15.392,-34.506Z" style="fill:white;"/>
            </g>
        </g>
    </g>
</svg>
