<?xml version="1.0" encoding="UTF-8" standalone="no"?>
<!DOCTYPE svg PUBLIC "-//W3C//DTD SVG 1.1//EN" "http://www.w3.org/Graphics/SVG/1.1/DTD/svg11.dtd">
<svg width="100%" height="100%" viewBox="0 100 404 404" version="1.1" xmlns="http://www.w3.org/2000/svg" xmlns:xlink="http://www.w3.org/1999/xlink" xml:space="preserve" xmlns:serif="http://www.serif.com/" style="fill-rule:evenodd;clip-rule:evenodd;stroke-linejoin:round;stroke-miterlimit:2;">
    <g transform="matrix(1,0,0,1,-7866.17,-1342.93)">
        <g transform="matrix(0.848625,0,0,0.759804,4558.41,16.2309)">
            <g transform="matrix(4.9099,0,0,5.48387,4311.05,2083.7)">
                <path d="M0,-0.707C0.112,-0.553 0.204,-0.419 0.278,-0.306C0.204,-0.19 0.111,-0.058 -0.001,0.098C-2.574,3.695 -14.211,18.063 -35.806,18.033C-57.404,18.004 -68.998,3.605 -71.565,0.001C-71.674,-0.156 -71.768,-0.288 -71.845,-0.405C-71.768,-0.518 -71.674,-0.651 -71.564,-0.805C-68.987,-4.403 -57.354,-18.77 -35.755,-18.741C-14.161,-18.711 -2.563,-4.313 0,-0.707ZM-35.776,14.774C-32.346,14.779 -29.186,13.633 -26.653,11.706C-27,11.575 -26.992,11.402 -28.024,11.361C-29.538,11.302 -30.571,12.642 -31.083,12.935C-31.593,13.228 -34.797,11.402 -37.237,11.637C-38.331,11.741 -39.718,12.214 -40.185,13.427C-40.306,13.742 -40.197,14.005 -40.004,14.163C-38.663,14.556 -37.246,14.772 -35.776,14.774ZM-25.16,10.409C-23.66,8.921 -22.474,7.117 -21.704,5.107C-21.709,4.717 -21.83,4.322 -21.935,4.127C-21.989,4.017 -22.049,3.901 -22.111,3.779C-22.438,3.126 -22.821,4.197 -24.629,4.646C-25.242,4.797 -26.054,4.892 -27.361,5.363C-28.312,5.708 -29.453,7.235 -28.923,8.576C-28.398,9.916 -28.725,10.828 -27.516,10.039C-26.302,9.248 -27.165,10.184 -26.759,10.335C-26.356,10.483 -26.453,9.815 -25.632,10.234C-25.465,10.318 -25.311,10.367 -25.16,10.409ZM-37.809,4.965C-36.815,3.37 -38.101,3.314 -38.696,4.404C-38.807,4.604 -39.346,7.242 -38.964,7.538C-38.585,7.833 -38.016,5.304 -37.809,4.965ZM-25.021,2.022C-24.855,2.087 -24.248,2.117 -24.248,1.871C-24.248,1.625 -24.647,1.164 -24.956,1.007C-25.259,0.858 -25.57,1.068 -25.448,1.438C-25.326,1.807 -25.183,1.961 -25.021,2.022ZM-31.661,1.987C-31.365,1.719 -32.125,1.011 -32.631,1.056C-32.857,1.074 -33.476,1.561 -33.098,1.856C-32.718,2.153 -31.958,2.251 -31.661,1.987ZM-40.529,8.462C-40.232,7.317 -39.894,7.993 -39.747,7.212C-39.599,6.431 -39.354,6.378 -39.402,5.438C-39.451,4.502 -39.32,4.284 -38.636,3.606C-37.953,2.933 -38.148,3.288 -37.949,2.66C-37.751,2.035 -38.433,1.859 -39.041,1.473C-39.755,1.018 -40.489,-0.199 -40.418,-1.026C-40.368,-1.599 -40.062,-1.077 -39.362,-0.348C-38.663,0.384 -38.349,0.956 -37.637,0.786C-36.922,0.615 -35.944,-0.025 -36.199,-0.752C-36.37,-1.242 -38.775,-3.154 -38.666,-3.517C-38.542,-3.931 -38.133,-3.619 -37.4,-3.047C-36.67,-2.471 -35.795,-2.567 -35.616,-1.551C-35.284,0.321 -33.149,-0.506 -31.683,1.179C-31.119,1.826 -30.842,1.128 -30.458,0.346C-30.072,-0.437 -30.756,-0.804 -30.22,-1.17C-29.682,-1.537 -29.048,-1.376 -28.804,-0.751C-28.562,-0.124 -28.221,0.69 -27.909,1.522C-27.613,2.312 -25.817,3.542 -25.579,3.56C-24.562,3.626 -25.931,2.056 -26.037,1.481C-26.143,0.907 -25.711,-0.167 -25.268,-0.323C-24.823,-0.48 -24.647,-0.329 -23.686,-0.953C-22.723,-1.578 -23.715,-1.686 -23.735,-2.729C-23.755,-3.771 -23.111,-3.161 -22.959,-2.941C-22.363,-2.067 -21.334,-2.532 -21.197,-3.074C-21.164,-3.207 -21.112,-3.443 -21.123,-3.77C-22.699,-10.384 -28.638,-15.309 -35.735,-15.318C-38.719,-15.322 -41.498,-14.454 -43.84,-12.958C-42.095,-13.087 -38.595,-13.675 -38.971,-12.142C-39.303,-10.786 -36.755,-10.562 -38.05,-9.897C-38.6,-9.611 -40.207,-8.495 -40.562,-8.691C-41.559,-9.231 -38.522,-9.918 -39.106,-10.312C-39.692,-10.712 -40.858,-10.256 -41.77,-10.057C-42.219,-9.956 -43.973,-9.963 -44.614,-9.658C-45.255,-9.348 -46.011,-8.938 -45.8,-8.39C-45.586,-7.841 -43.85,-7.405 -43.558,-7.405C-43.266,-7.404 -42.949,-7.475 -42.326,-8.238C-41.704,-9.005 -40.95,-8.3 -41.169,-8.198C-41.386,-8.093 -41.876,-7.746 -42.261,-7.29C-42.568,-6.93 -43.14,-6.675 -43.762,-6.989C-44.385,-7.302 -45.777,-7.135 -46.047,-6.98C-46.315,-6.823 -46.986,-6.355 -47.189,-6.302C-47.39,-6.248 -47.683,-6.096 -47.585,-5.886C-47.488,-5.679 -47.434,-5.429 -47.589,-5.275C-47.741,-5.117 -48.021,-4.791 -48.409,-5.051C-48.764,-5.288 -49.796,-5.185 -50.084,-4.868C-50.123,-4.747 -50.159,-4.624 -50.195,-4.502C-50.215,-3.969 -49.984,-3.093 -49.102,-3.75C-48.813,-3.967 -47.372,-3.914 -46.483,-4.755C-46.063,-5.151 -45.595,-4.631 -45.494,-4.423C-45.391,-4.213 -44.787,-2.919 -44.485,-2.97C-44.184,-3.02 -44.975,-4.213 -44.621,-4.265C-44.267,-4.318 -43.816,-3.259 -43.603,-3.408C-43.028,-3.814 -42.553,-3.67 -42.489,-3.067C-42.435,-2.586 -42.887,-2.271 -43.465,-2.033C-44.264,-1.709 -45.637,-2.45 -46.508,-2.779C-47.567,-3.179 -48.972,-3.397 -48.972,-3.397L-49.853,-3.094C-49.853,-3.094 -49.835,-2.873 -50.632,-1.933C-50.667,-1.892 -50.697,-1.843 -50.725,-1.793C-50.773,-1.299 -50.801,-0.8 -50.802,-0.292C-50.805,1.785 -50.387,3.764 -49.628,5.565C-49.607,5.573 -49.597,5.579 -49.575,5.586C-48.746,5.848 -48.986,5.711 -48.402,5.453C-47.815,5.19 -47.29,4.62 -46.872,5.141C-46.45,5.662 -46.049,5.496 -45.992,6.329C-45.937,7.164 -45.132,5.783 -44.981,7.035C-44.744,8.99 -44.283,8.028 -44.284,8.353C-44.285,9.292 -44.192,11.118 -43.508,11.17C-42.825,11.221 -41.747,10.755 -41.456,10.388C-41.164,10.026 -40.822,9.612 -40.529,8.462ZM-24.382,2.485C-24.609,2.503 -25.227,2.99 -24.849,3.285C-24.469,3.583 -23.711,3.682 -23.415,3.415C-23.117,3.147 -23.876,2.445 -24.382,2.485ZM-21.029,2.82C-20.823,1.828 -20.711,0.802 -20.71,-0.251C-20.709,-0.544 -20.72,-0.835 -20.735,-1.123C-20.925,-1.777 -21.314,-2.231 -22.044,-2.175C-22.228,-2.16 -21.558,-1.416 -21.781,-1.164C-23.118,0.371 -21.432,2.709 -21.029,2.82ZM-48.588,-8.129C-49.023,-7.422 -49.398,-6.672 -49.712,-5.893C-49.607,-5.841 -49.479,-5.817 -49.324,-5.852C-48.848,-5.956 -48.033,-6.93 -47.513,-7.408C-47.329,-7.578 -46.326,-8.03 -46.39,-8.278C-46.45,-8.527 -46.949,-8.716 -47.323,-8.653C-47.697,-8.595 -48.238,-8.529 -48.51,-8.22C-48.523,-8.203 -48.554,-8.17 -48.588,-8.129ZM-47.815,-9.662C-47.882,-9.559 -47.744,-9.287 -47.393,-9.232C-46.939,-9.159 -46.113,-9.622 -45.796,-9.95C-45.683,-10.065 -45.554,-10.733 -45.593,-10.906C-45.63,-11.078 -45.935,-11.208 -46.164,-11.163C-46.396,-11.123 -46.727,-11.079 -46.893,-10.865C-46.972,-10.763 -47.62,-9.948 -47.815,-9.662Z" style="fill:white;"/>
            </g>
        </g>
    </g>
</svg>
