<?xml version="1.0" encoding="UTF-8" standalone="no"?>
<!DOCTYPE svg PUBLIC "-//W3C//DTD SVG 1.1//EN" "http://www.w3.org/Graphics/SVG/1.1/DTD/svg11.dtd">
<svg width="100%" height="100%" viewBox="50 100 305 405" version="1.1" xmlns="http://www.w3.org/2000/svg" xmlns:xlink="http://www.w3.org/1999/xlink" xml:space="preserve" xmlns:serif="http://www.serif.com/" style="fill-rule:evenodd;clip-rule:evenodd;stroke-linejoin:round;stroke-miterlimit:2;">
    <g transform="matrix(1,0,0,1,-9677.99,-889.832)">
        <g transform="matrix(0.848625,0,0,0.759804,4558.41,16.2309)">
            <g transform="matrix(4.9099,0,0,5.48387,6110.65,1499.29)">
                <path d="M0,10.255C-0.199,10.255 -0.36,10.093 -0.36,9.894C-0.36,9.82 -0.338,9.75 -0.299,9.693L-0.189,9.559L6.928,0.22L6.996,0.143L7.04,0.092C7.105,0.037 7.186,0 7.276,0C7.382,0 7.476,0.045 7.542,0.117L7.613,0.195L14.908,9.634L14.928,9.655C14.986,9.719 15.023,9.802 15.023,9.894C15.023,10.093 14.861,10.255 14.663,10.255L0,10.255ZM14.619,11.586C14.817,11.586 14.978,11.747 14.978,11.946L14.978,23.444C14.978,23.642 14.817,23.804 14.619,23.804L9.765,23.804L9.765,16.571C9.765,16.371 9.604,16.211 9.405,16.211L5.015,16.211C4.816,16.211 4.656,16.371 4.656,16.571L4.656,23.804L-0.073,23.804C-0.272,23.804 -0.433,23.642 -0.433,23.444L-0.433,11.946C-0.433,11.747 -0.272,11.586 -0.073,11.586L14.619,11.586ZM65.398,8.576C65.596,8.576 65.754,8.728 65.754,8.921L65.754,23.605C65.754,23.796 65.596,23.951 65.398,23.951L50.856,23.951C50.66,23.951 50.501,23.796 50.501,23.605L50.501,8.921C50.501,8.728 50.66,8.576 50.856,8.576L65.398,8.576ZM64.081,13.282L64.081,10.64C64.081,10.45 63.923,10.295 63.725,10.295L59.382,10.295C59.184,10.295 59.026,10.45 59.026,10.64L59.026,13.282C59.026,13.474 59.184,13.629 59.382,13.629L63.725,13.629C63.923,13.629 64.081,13.474 64.081,13.282ZM57.441,13.282L57.441,10.64C57.441,10.45 57.283,10.295 57.086,10.295L52.742,10.295C52.544,10.295 52.385,10.45 52.385,10.64L52.385,13.282C52.385,13.474 52.544,13.629 52.742,13.629L57.086,13.629C57.283,13.629 57.441,13.474 57.441,13.282ZM64.081,18.162L64.081,15.522C64.081,15.329 63.923,15.175 63.725,15.175L59.382,15.175C59.184,15.175 59.026,15.329 59.026,15.522L59.026,18.162C59.026,18.355 59.184,18.509 59.382,18.509L63.725,18.509C63.923,18.509 64.081,18.355 64.081,18.162ZM57.441,18.162L57.441,15.522C57.441,15.329 57.283,15.175 57.086,15.175L52.742,15.175C52.544,15.175 52.385,15.329 52.385,15.522L52.385,18.162C52.385,18.355 52.544,18.509 52.742,18.509L57.086,18.509C57.283,18.509 57.441,18.355 57.441,18.162ZM31.594,-25.508C31.785,-25.508 31.944,-25.353 31.944,-25.159L31.944,23.476C31.944,23.668 31.785,23.824 31.594,23.824L17.363,23.824C17.173,23.824 17.015,23.668 17.015,23.476L17.015,-25.159C17.015,-25.353 17.173,-25.508 17.363,-25.508L31.594,-25.508ZM23.129,1.606L23.129,-2.027C23.129,-2.13 23.045,-2.214 22.942,-2.214L19.683,-2.214C19.58,-2.214 19.496,-2.13 19.496,-2.027L19.496,1.606C19.496,1.708 19.58,1.792 19.683,1.792L22.942,1.792C23.045,1.792 23.129,1.708 23.129,1.606ZM29.519,-15.072L29.519,-18.704C29.519,-18.808 29.435,-18.891 29.331,-18.891L26.073,-18.891C25.969,-18.891 25.886,-18.808 25.886,-18.704L25.886,-15.072C25.886,-14.97 25.969,-14.886 26.073,-14.886L29.331,-14.886C29.435,-14.886 29.519,-14.97 29.519,-15.072ZM23.129,18.283L23.129,14.652C23.129,14.549 23.045,14.466 22.942,14.466L19.683,14.466C19.58,14.466 19.496,14.549 19.496,14.652L19.496,18.283C19.496,18.386 19.58,18.47 19.683,18.47L22.942,18.47C23.045,18.47 23.129,18.386 23.129,18.283ZM29.519,1.606L29.519,-2.027C29.519,-2.13 29.435,-2.214 29.331,-2.214L26.073,-2.214C25.969,-2.214 25.886,-2.13 25.886,-2.027L25.886,1.606C25.886,1.708 25.969,1.792 26.073,1.792L29.331,1.792C29.435,1.792 29.519,1.708 29.519,1.606ZM29.519,-6.735L29.519,-10.367C29.519,-10.47 29.435,-10.551 29.331,-10.551L26.073,-10.551C25.969,-10.551 25.886,-10.47 25.886,-10.367L25.886,-6.735C25.886,-6.631 25.969,-6.548 26.073,-6.548L29.331,-6.548C29.435,-6.548 29.519,-6.631 29.519,-6.735ZM23.129,9.943L23.129,6.313C23.129,6.208 23.045,6.126 22.942,6.126L19.683,6.126C19.58,6.126 19.496,6.208 19.496,6.313L19.496,9.943C19.496,10.048 19.58,10.13 19.683,10.13L22.942,10.13C23.045,10.13 23.129,10.048 23.129,9.943ZM29.519,9.943L29.519,6.313C29.519,6.208 29.435,6.126 29.331,6.126L26.073,6.126C25.969,6.126 25.886,6.208 25.886,6.313L25.886,9.943C25.886,10.048 25.969,10.13 26.073,10.13L29.331,10.13C29.435,10.13 29.519,10.048 29.519,9.943ZM23.129,-15.072L23.129,-18.704C23.129,-18.808 23.045,-18.891 22.942,-18.891L19.683,-18.891C19.58,-18.891 19.496,-18.808 19.496,-18.704L19.496,-15.072C19.496,-14.97 19.58,-14.886 19.683,-14.886L22.942,-14.886C23.045,-14.886 23.129,-14.97 23.129,-15.072ZM29.519,18.283L29.519,14.652C29.519,14.549 29.435,14.466 29.331,14.466L26.073,14.466C25.969,14.466 25.886,14.549 25.886,14.652L25.886,18.283C25.886,18.386 25.969,18.47 26.073,18.47L29.331,18.47C29.435,18.47 29.519,18.386 29.519,18.283ZM23.129,-6.735L23.129,-10.367C23.129,-10.47 23.045,-10.551 22.942,-10.551L19.683,-10.551C19.58,-10.551 19.496,-10.47 19.496,-10.367L19.496,-6.735C19.496,-6.631 19.58,-6.548 19.683,-6.548L22.942,-6.548C23.045,-6.548 23.129,-6.631 23.129,-6.735ZM65.737,7.098C65.737,7.261 65.607,7.391 65.445,7.391L50.808,7.391C50.647,7.391 50.516,7.261 50.516,7.098L50.516,4.171C50.516,4.01 50.647,3.879 50.808,3.879L65.445,3.879C65.607,3.879 65.737,4.01 65.737,4.171L65.737,7.098ZM48.783,-16.324C48.803,-16.28 48.817,-16.23 48.817,-16.178L48.817,23.549C48.817,23.741 48.662,23.896 48.469,23.896L34.252,23.896C34.059,23.896 33.903,23.741 33.903,23.549L33.903,1.746C33.906,1.637 33.952,1.541 34.024,1.469L34.089,1.383L48.075,-16.359L48.196,-16.511C48.204,-16.518 48.213,-16.523 48.222,-16.529C48.282,-16.568 48.349,-16.596 48.426,-16.596C48.597,-16.596 48.736,-16.48 48.783,-16.324ZM47.165,13.255L47.165,10.6C47.165,10.406 47.008,10.252 46.817,10.252L42.577,10.252C42.383,10.252 42.227,10.406 42.227,10.6L42.227,13.255C42.227,13.448 42.383,13.603 42.577,13.603L46.817,13.603C47.008,13.603 47.165,13.448 47.165,13.255ZM47.165,8.349L47.165,5.693C47.165,5.5 47.008,5.345 46.817,5.345L42.577,5.345C42.383,5.345 42.227,5.5 42.227,5.693L42.227,8.349C42.227,8.54 42.383,8.696 42.577,8.696L46.817,8.696C47.008,8.696 47.165,8.54 47.165,8.349ZM40.693,3.448L40.693,-2.558C40.655,-2.741 40.5,-2.883 40.305,-2.883C40.179,-2.883 40.067,-2.825 39.992,-2.735L39.889,-2.611C38.862,-1.351 36.415,1.662 35.873,2.438C35.86,2.457 35.844,2.479 35.834,2.495C35.823,2.509 35.811,2.525 35.803,2.541C35.79,2.561 35.788,2.567 35.782,2.582C35.765,2.622 35.757,2.666 35.755,2.712L35.755,3.448C35.755,3.64 35.911,3.796 36.105,3.796L40.345,3.796C40.536,3.796 40.693,3.64 40.693,3.448ZM47.165,-1.464L47.165,-4.118C47.165,-4.313 47.008,-4.468 46.817,-4.468L42.577,-4.468C42.383,-4.468 42.227,-4.313 42.227,-4.118L42.227,-1.464C42.227,-1.271 42.383,-1.116 42.577,-1.116L46.817,-1.116C47.008,-1.116 47.165,-1.271 47.165,-1.464ZM40.681,18.16L40.681,15.505C40.681,15.313 40.526,15.158 40.334,15.158L36.092,15.158C35.899,15.158 35.744,15.313 35.744,15.505L35.744,18.16C35.744,18.353 35.899,18.508 36.092,18.508L40.334,18.508C40.526,18.508 40.681,18.353 40.681,18.16ZM40.681,8.349L40.681,5.693C40.681,5.5 40.526,5.345 40.334,5.345L36.092,5.345C35.899,5.345 35.744,5.5 35.744,5.693L35.744,8.349C35.744,8.54 35.899,8.696 36.092,8.696L40.334,8.696C40.526,8.696 40.681,8.54 40.681,8.349ZM42.894,-6.688C42.845,-6.621 42.816,-6.538 42.816,-6.448C42.816,-6.232 42.988,-6.058 43.202,-6.048C43.209,-6.048 43.214,-6.045 43.22,-6.045C43.226,-6.045 43.231,-6.048 43.238,-6.048L46.733,-6.048C46.739,-6.048 46.744,-6.045 46.75,-6.045C46.756,-6.045 46.762,-6.048 46.768,-6.048C46.982,-6.058 47.154,-6.232 47.154,-6.448L47.154,-10.937C47.116,-11.122 46.961,-11.262 46.766,-11.262C46.64,-11.262 46.528,-11.204 46.453,-11.115L46.351,-10.991C45.564,-10.027 43.952,-8.042 42.994,-6.814L42.894,-6.688ZM40.681,13.255L40.681,10.6C40.681,10.406 40.526,10.252 40.334,10.252L36.092,10.252C35.899,10.252 35.744,10.406 35.744,10.6L35.744,13.255C35.744,13.448 35.899,13.603 36.092,13.603L40.334,13.603C40.526,13.603 40.681,13.448 40.681,13.255ZM47.165,3.443L47.165,0.788C47.165,0.595 47.008,0.44 46.817,0.44L42.577,0.44C42.383,0.44 42.227,0.595 42.227,0.788L42.227,3.443C42.227,3.634 42.383,3.79 42.577,3.79L46.817,3.79C47.008,3.79 47.165,3.634 47.165,3.443ZM47.165,18.16L47.165,15.505C47.165,15.313 47.008,15.158 46.817,15.158L42.577,15.158C42.383,15.158 42.227,15.313 42.227,15.505L42.227,18.16C42.227,18.353 42.383,18.508 42.577,18.508L46.817,18.508C47.008,18.508 47.165,18.353 47.165,18.16Z" style="fill:white;"/>
            </g>
        </g>
    </g>
</svg>
